<svg id="Layer_1" data-name="Layer 1" xmlns="http://www.w3.org/2000/svg" viewBox="0 0 420 200"><defs><style>.cls-1{fill:#fff;}</style></defs><title>Artboard 28</title><path class="cls-1" d="M254.55,41.85c5.59,0,11.17,0,16.75,0,.63,0,.91.16,1.05.81q4.57,20.73,9.2,41.47,3.18,14.32,6.38,28.65c.05.25,0,.59.34.68s.67-.11.79-.55c.56-2.2,1.14-4.39,1.72-6.58l15.75-59.75c.35-1.35.72-2.69,1.06-4a.74.74,0,0,1,.84-.68h26.5c.61,0,.77.28.9.78Q340.2,59.33,344.59,76q4.86,18.48,9.71,37a1.21,1.21,0,0,1,.05.18c.06.32.18.54.57.54s.45-.3.52-.58c.46-2.09.92-4.19,1.39-6.28q3.53-15.95,7.06-31.9T371,42.9c.23-1,.22-1,1.28-1h33.57c.76,0,.77,0,.57.72-.45,1.52-.9,3-1.34,4.56Q400,64.23,395,81.34q-5.39,18.28-10.78,36.55-5.85,19.87-11.7,39.74a.93.93,0,0,1-1.08.8q-14.34,0-28.69,0c-.69,0-.92-.26-1.11-.86q-5.6-18.48-11.22-36.94-4-13.1-8-26.18c-.06-.2-.13-.4-.18-.6a.53.53,0,0,0-.57-.46c-.35,0-.46.2-.54.49l-1.32,4.3q-4.69,15.45-9.4,30.9-4.31,14.19-8.63,28.39c-.29.94-.29.94-1.28.94q-14.25,0-28.5,0a1,1,0,0,1-1.12-.83q-8.4-28.59-16.84-57.17-8.3-28.14-16.6-56.27c-.18-.59-.34-1.2-.53-1.79-.11-.37,0-.52.39-.52h17.24Z"/><path class="cls-1" d="M13.71,100.15V42.28a.38.38,0,0,1,.42-.42h.57q12.53,0,25.06,0a1.44,1.44,0,0,1,1.37.73Q55.08,63.15,69.06,83.73l12.57,18.5c.09.14.19.28.29.41a.61.61,0,0,0,.68.17c.29-.06.23-.31.24-.51s0-.42,0-.63V43.24c0-.21,0-.42,0-.63-.08-.62.21-.77.79-.77h30.13c.81,0,.85,0,.86.84V157.18c0,1.49,0,1.23-1.26,1.24q-12.24,0-24.49,0a1.32,1.32,0,0,1-1.23-.64Q79.84,146.39,72,135,59.19,116.42,46.39,97.8a1.25,1.25,0,0,0-.35-.43c-.29-.16-.58-.17-.61.28,0,.23,0,.46,0,.69v58.75a5.23,5.23,0,0,0,0,.56c.08.59-.16.78-.76.78q-15.09,0-30.19,0c-.76,0-.76,0-.76-.89Z"/><path class="cls-1" d="M125,100a76.67,76.67,0,0,1,2.76-21A52.86,52.86,0,0,1,142.8,54.28,51.79,51.79,0,0,1,164.14,42.6a66.37,66.37,0,0,1,38.5,1.12,50.68,50.68,0,0,1,20,12.58,53.41,53.41,0,0,1,13.19,23.15A72.63,72.63,0,0,1,238.18,94a83.71,83.71,0,0,1-1.64,23.84,54.18,54.18,0,0,1-11.87,23.87,50.11,50.11,0,0,1-18.94,13.64,59.55,59.55,0,0,1-18.45,4.42,64.35,64.35,0,0,1-23.19-2.15,51.36,51.36,0,0,1-23.63-14,53.94,53.94,0,0,1-13.61-25.75,75.78,75.78,0,0,1-1.79-14C125,102.63,125,101.36,125,100Zm32.67.15a61.41,61.41,0,0,0,.65,9.39,34.58,34.58,0,0,0,4,12.28,19.91,19.91,0,0,0,12,9.62,27.61,27.61,0,0,0,10.89.77,20.75,20.75,0,0,0,9-3.09,21.75,21.75,0,0,0,8.37-10.39,45.73,45.73,0,0,0,3.1-16.35,64.24,64.24,0,0,0-.49-10.65,36,36,0,0,0-3.75-12.5,19.92,19.92,0,0,0-12.62-10.35,27,27,0,0,0-14-.09,19.36,19.36,0,0,0-10.3,6.47,26.82,26.82,0,0,0-5,9.82A53.27,53.27,0,0,0,157.64,100.11Z"/></svg>